<svg width="600.18" height="106.122" viewBox="0 0 158.798 28.078" xmlns="http://www.w3.org/2000/svg">
    <g fill="#ffc757">
        <path d="M46.156 21.356q-1.409.647-3.084 1.132-1.663.474-3.222.474-2.01 0-3.685-.554-1.675-.555-2.853-1.664-1.19-1.12-1.836-2.795-.647-1.686-.647-3.939 0-4.123 2.402-6.503 2.414-2.39 6.619-2.39 1.467 0 2.991.358 1.537.346 3.304 1.19v2.714h-.208q-.358-.277-1.04-.728-.681-.45-1.34-.75-.796-.36-1.813-.59-1.005-.243-2.287-.243-2.888 0-4.574 1.86-1.675 1.848-1.675 5.013 0 3.338 1.756 5.197 1.756 1.848 4.782 1.848 1.109 0 2.206-.22 1.109-.218 1.94-.566v-4.216h-4.608v-2.01h6.872zm18.227 1.271h-2.968l-5.752-6.838H52.44v6.838h-2.287v-17.2h4.817q1.559 0 2.598.209 1.04.196 1.872.716.935.589 1.455 1.49.531.889.531 2.264 0 1.86-.935 3.118-.936 1.248-2.576 1.883zm-5.348-12.36q0-.739-.266-1.305-.254-.577-.854-.97-.497-.335-1.179-.462-.681-.139-1.605-.139H52.44v6.492h2.31q1.086 0 1.894-.185.809-.197 1.375-.716.52-.485.762-1.109.254-.635.254-1.605zm21.126 12.36h-2.437l-1.686-4.794h-7.439l-1.686 4.794H64.59l6.26-17.2h3.05zm-4.828-6.758L72.32 7.426l-3.027 8.443zm18.689-5.244q0 1.144-.404 2.126-.393.97-1.11 1.686-.889.89-2.102 1.34-1.212.439-3.06.439h-2.288v6.41h-2.287V5.429h4.667q1.548 0 2.622.266 1.074.254 1.906.808.982.659 1.513 1.64.543.982.543 2.484zm-2.38.06q0-.89-.312-1.548t-.947-1.074q-.554-.358-1.27-.508-.705-.162-1.79-.162h-2.265v6.873h1.93q1.385 0 2.252-.243.866-.254 1.409-.797.543-.554.762-1.167.231-.612.231-1.374zm18.551 11.942h-2.287v-8.42h-8.582v8.42h-2.287v-17.2h2.287v6.746h8.582V5.428h2.287zm15.951 0h-11.33v-17.2h11.33v2.034H117.1v4.712h9.044v2.033H117.1v6.388h9.044zm16.749 0h-2.83L131.908 7.24v15.386h-2.137v-17.2h3.546l7.439 14.046V5.428h2.137zm15.905 0h-11.331v-17.2h11.33v2.034h-9.043v4.712h9.044v2.033h-9.044v6.388h9.044z"
              font-size="3.175"/>
        <path
                d="M18.527 18.587c.153.088 1.766 2.882 1.766 3.059 0 .176-1.613 2.97-1.766 3.059-.153.088-3.379.088-3.532 0-.153-.089-1.766-2.883-1.766-3.06 0-.176 1.613-2.97 1.766-3.058.153-.088 3.38-.088 3.532 0zm-6.614 3.307c.152.089 1.766 2.883 1.766 3.06 0 .176-1.614 2.97-1.766 3.058-.153.088-3.38.088-3.532 0-.153-.088-1.766-2.882-1.766-3.059 0-.176 1.613-2.97 1.766-3.059.152-.088 3.379-.088 3.532 0zm-6.615-3.307c.153.088 1.766 2.882 1.766 3.059 0 .176-1.613 2.97-1.766 3.059-.153.088-3.38.088-3.532 0C1.613 24.616 0 21.822 0 21.645c0-.176 1.613-2.97 1.766-3.058.153-.088 3.379-.088 3.532 0zm13.229-7.276c.153.088 1.766 2.882 1.766 3.059 0 .176-1.613 2.97-1.766 3.059-.153.088-3.379.088-3.532 0-.153-.089-1.766-2.883-1.766-3.06 0-.176 1.613-2.97 1.766-3.058.153-.088 3.38-.088 3.532 0zm-6.614 3.307c.152.089 1.766 2.883 1.766 3.06 0 .176-1.614 2.97-1.766 3.058-.153.088-3.38.088-3.532 0-.153-.088-1.766-2.882-1.766-3.059 0-.176 1.613-2.97 1.766-3.059.152-.088 3.379-.088 3.532 0zm-6.615-3.307c.153.088 1.766 2.882 1.766 3.059 0 .176-1.613 2.97-1.766 3.059-.153.088-3.38.088-3.532 0C1.613 17.34 0 14.546 0 14.369c0-.176 1.613-2.97 1.766-3.058.153-.088 3.379-.088 3.532 0zm13.229-7.276c.153.088 1.766 2.882 1.766 3.059 0 .176-1.613 2.97-1.766 3.059-.153.088-3.379.088-3.532 0-.153-.089-1.766-2.883-1.766-3.06 0-.176 1.613-2.97 1.766-3.058.153-.088 3.38-.088 3.532 0zm-6.614 3.307c.152.089 1.766 2.882 1.766 3.06 0 .176-1.614 2.97-1.766 3.058-.153.088-3.38.088-3.532 0-.153-.088-1.766-2.882-1.766-3.059 0-.177 1.613-2.97 1.766-3.059.152-.088 3.379-.088 3.532 0zM5.298 4.035c.153.088 1.766 2.882 1.766 3.059 0 .176-1.613 2.97-1.766 3.059-.153.088-3.38.088-3.532 0C1.613 10.064 0 7.27 0 7.093c0-.176 1.613-2.97 1.766-3.058.153-.088 3.379-.088 3.532 0zM11.913.066c.152.089 1.766 2.882 1.766 3.059 0 .177-1.614 2.97-1.766 3.059-.153.088-3.38.088-3.532 0-.153-.088-1.766-2.882-1.766-3.059 0-.177 1.613-2.97 1.766-3.059.152-.088 3.379-.088 3.532 0z"/>
    </g>
</svg>
